<?xml version="1.0" encoding="UTF-8"?>
<!DOCTYPE svg PUBLIC "-//W3C//DTD SVG 1.1//EN" "http://www.w3.org/Graphics/SVG/1.1/DTD/svg11.dtd">
<!-- Creator: CorelDRAW 2020 (64-Bit) -->
<svg xmlns="http://www.w3.org/2000/svg" xml:space="preserve" width="30mm" height="30mm" version="1.1" style="shape-rendering:geometricPrecision; text-rendering:geometricPrecision; image-rendering:optimizeQuality; fill-rule:evenodd; clip-rule:evenodd"
viewBox="0 0 3000 3000"
 xmlns:xlink="http://www.w3.org/1999/xlink"
 xmlns:xodm="http://www.corel.com/coreldraw/odm/2003">
 <defs>
  <style type="text/css">
   <![CDATA[
    .fil0 {fill:#FEFEFE}
   ]]>
  </style>
 </defs>
 <g id="Слой_x0020_1">
  <metadata id="CorelCorpID_0Corel-Layer"/>
  <g id="_1184014688">
   <path class="fil0" d="M1642.24 2237.37c-6.34,-25.57 -1.88,-895.65 -1.88,-947 0,-72.55 9.95,-425.95 -8.85,-464.13 -14.3,-29.05 -31.95,-38.43 -68.2,-49.4 -45.97,-13.91 -258.28,-73.78 -271.09,-84.47 97.05,-0.53 659.32,-3.93 691.12,1.48 4.76,125.52 0.37,260.59 0.28,387.14 -0.02,33.25 -2.49,60.34 13.53,85.54 43.5,68.38 158.22,50.22 158.22,-55.15l0 -496.43c0,-93.5 -71.55,-94.59 -126.64,-94.56l-1296.81 0c-73.27,-0.12 -121.57,19.2 -121.58,94.56l0 1698.68c0,63.19 33.52,86.43 88.55,97.34l765.7 153.04c52.47,10.33 104.25,30.96 145,-4.16 45.42,-39.13 24.73,-86.1 31.7,-151.01 100.17,-2.12 202.59,-0.15 303.01,-0.15 99.76,0 211.07,21.65 211.07,-95.06l0 -496.43c0,-58.98 -40.92,-104.19 -102.32,-93.2 -72.19,12.91 -69.44,83.12 -69.43,126.97 0.03,54.96 3.61,358.69 -1.22,386.45l-340.16 -0.05z"/>
   <path class="fil0" d="M2334.77 1551.5c-28.11,32.88 -124.58,108.39 -132.6,155.35 -12.13,71.01 56.84,116.14 112.39,95.9 21.55,-7.85 27.56,-15.76 41.12,-29.91l217.78 -217.8c20.66,-20.64 55.24,-43.79 55.88,-89.09 0.63,-44.65 -30.59,-67 -53.51,-91.4l-72.92 -72.3c-11.65,-11.04 -25.34,-27.31 -36.99,-37.3l-53.99 -54.06c-6.44,-7.08 -11.43,-10.54 -18.7,-18.44 -39.02,-42.37 -80.69,-88.59 -138.73,-64.51 -31.8,13.19 -58.7,43.65 -52.95,90.72 7.09,57.97 109.03,120.28 131.69,159.83 -52.14,-0.03 -453.37,-2.85 -485.11,1.08 -103.39,12.82 -99.59,160.28 1.42,170.18 86.99,8.52 414.54,-7.34 485.22,1.75z"/>
  </g>
 </g>
</svg>
