<?xml version="1.0" encoding="UTF-8"?>
<!DOCTYPE svg PUBLIC "-//W3C//DTD SVG 1.1//EN" "http://www.w3.org/Graphics/SVG/1.1/DTD/svg11.dtd">
<!-- Creator: CorelDRAW 2020 (64-Bit) -->
<svg xmlns="http://www.w3.org/2000/svg" xml:space="preserve" width="30mm" height="30mm" version="1.1" style="shape-rendering:geometricPrecision; text-rendering:geometricPrecision; image-rendering:optimizeQuality; fill-rule:evenodd; clip-rule:evenodd"
viewBox="0 0 3000 3000"
 xmlns:xlink="http://www.w3.org/1999/xlink"
 xmlns:xodm="http://www.corel.com/coreldraw/odm/2003">
 <defs>
  <style type="text/css">
   <![CDATA[
    .str0 {stroke:#FEFEFE;stroke-width:20;stroke-miterlimit:22.9256}
    .fil0 {fill:#FEFEFE}
   ]]>
  </style>
 </defs>
 <g id="Слой_x0020_1">
  <metadata id="CorelCorpID_0Corel-Layer"/>
  <path class="fil0 str0" d="M1518.46 2081.45c-104.87,0 -181.37,-7.6 -270.21,-52.08 -31.48,-15.75 -59.38,-30.76 -86.31,-50.9 -13.88,-10.38 -24.07,-18.43 -37.84,-29.18 -14.08,-11.01 -22.63,-22.71 -36.49,-33.71 -10.14,-8.04 -6.92,-7.34 -15.14,-16.77 -5.96,-6.85 -11.45,-10.79 -17.48,-17.62 -74.07,-83.77 -136.44,-227.06 -136.44,-345.4 0,-115.14 5.18,-176.35 56.37,-278.68 15.93,-31.85 30.86,-58.79 51.22,-86 44.78,-59.82 76.42,-92.81 138.09,-136.33 85.64,-60.45 197.89,-102.09 309.55,-102.09 102.41,0 179.38,11.12 262.75,53.16 31.86,16.06 59.07,30.14 86.93,50.29 32.64,23.61 31.04,21.47 57.91,47.38 10.61,10.23 11.88,7.22 23.55,21.14l5.74 7.02c25.17,30.05 19.69,19.72 51.84,63.04 62.29,83.93 104.81,209.08 104.81,313.2 0,119.6 -19.11,212.93 -75.94,306.98 -15.97,26.44 -36.34,58.51 -55.82,81.4 -6.37,7.49 -10.46,9.95 -16.87,18.23 -7.03,9.1 -8.58,10.79 -16.49,18.61 -5.88,5.83 -9.93,10.58 -15.99,15.92l-58.21 47.09c-77.46,58.33 -200.37,105.3 -309.53,105.3zm-122.24 -2010.34l230.73 0c11.13,0 41.37,17.28 51.11,22.29 9.3,4.79 14.84,8.43 23.05,15.24 30.11,24.96 66.09,63.76 71.89,106.81 4.39,32.61 7.12,234.27 7.12,280.07 24.5,2.04 89.17,29.28 113.96,39.2 28.14,11.27 84.31,41.85 106.22,46.95 40.37,-27.03 105.5,-112.16 149.51,-147.26 7.82,-6.24 9.72,-7.02 17.27,-14.64 22.3,-22.48 44.94,-43.48 76.78,-54.05 15.38,-5.1 36.97,-7.42 56.4,-7.42 60.3,0 95.01,15.95 128.44,47.06l124.45 121.27c7.49,7.49 13.7,13.04 20.78,20.7 59.29,64.1 82.42,161.55 24.97,240.44 -7.67,10.54 -90.69,103.83 -109.96,119.8 -10.79,8.94 -6.74,6.16 -15.59,16.32 -18.64,21.38 -47.33,37.26 -64.6,63.04 18.84,35.59 36.75,73.89 53.37,112.57 9.74,22.67 40.44,97.25 42.36,120.38 26,0 41.97,3.23 70.2,3.19 24.47,-0.03 48.94,0 73.4,0 103.68,0 174.28,-11.42 246.2,79.28 11.19,14.11 34.61,54.3 34.61,70.7l0 271.23c0,20.65 -40.56,77.38 -53.43,90.17 -72.95,72.47 -132.52,55.28 -230.7,56.49l-66.88 3.32c-23.4,0 -46.8,0 -70.21,0 -17.61,33.29 -27.85,81.06 -42.82,116.72 -8.67,20.63 -16,35.14 -25.29,54.49 -7.95,16.55 -20.33,37.78 -24.43,55.36 21.12,31.52 64.89,64.22 91.79,93.29l86.5 95.39c36.23,45.44 35.51,76.31 35.51,133.61 0,74.6 -100.55,159.55 -150.77,209.81l-36.75 33.46c-56.03,56.09 -134.45,76.22 -210.11,45.86 -60.57,-24.3 -180.45,-173.4 -224.61,-202.98 -15.69,3.66 -39.02,18.7 -54.29,25.49l-113 46.56c-19.44,7.53 -42.51,12.45 -59.28,20.49 0,42.95 -2.62,250.75 -7.6,279.6 -6.66,38.67 -31.11,66.92 -53.8,89.79 -11.01,11.11 -25.31,22.64 -39.66,30.54 -9.75,5.37 -38.38,21.29 -48.92,21.29l-274.42 0c-11.04,0 -41.89,-17.21 -50.97,-22.43 -41.08,-23.62 -84.89,-72.02 -91.83,-121.96 -4.37,-31.39 -7.18,-231.4 -7.18,-276.83 -30.22,-14.5 -85.37,-28.57 -121.22,-44.71 -18.04,-8.11 -101.44,-51.02 -114.92,-51.02 -3.81,0 -111.01,115.61 -128.99,129.49 -14.23,10.99 -20.44,18.94 -32.89,30.93 -59.14,56.97 -129.77,71.42 -207.95,46.67 -23.86,-7.55 -31.7,-15.37 -50.05,-29.72l-81.94 -77.61c-12.67,-12.66 -28.6,-26.61 -39.3,-40.47 -39.33,-50.94 -84.32,-71.45 -84.32,-151.83 0,-91.99 17.08,-106.14 80.54,-174.74l79.81 -79.74c16.13,-16.13 52.29,-48.59 63.02,-64.62l-89.34 -220.18c-24.47,0 -48.93,0 -73.4,0l-66.88 -3.32c-46.68,-0.57 -98.04,3.04 -139.7,-3.89 -48.88,-8.13 -97.41,-52.86 -118.93,-94.88 -5.62,-10.97 -22.31,-35.35 -22.31,-47.89l0 -271.23c0,-19.65 25.17,-58.06 37.85,-73.84 16.33,-20.33 33.35,-38.77 56.83,-51.67 14.71,-8.08 31.18,-16.7 50.11,-20.08 40.8,-7.29 197.11,-2.78 247.81,-4.29 16.08,-0.48 15.98,-3.29 31.81,-3.29 4.33,-52.06 89.35,-213.38 89.35,-226.57 0,-8.4 -147.85,-146.38 -176.86,-183.72 -26.88,-34.61 -49.71,-57.08 -49.71,-113.04 0,-30.07 0.87,-67.55 14.06,-91.25 22.46,-40.36 95.96,-112.8 131.85,-148.96 8.46,-8.52 12.45,-10.13 20.8,-17.49 50.29,-44.29 72.42,-80.55 155.59,-80.55 87.24,0 122.17,40.8 177.89,96.53 34.49,34.48 111.76,98.79 134.82,133.23l81.94 -39.32c10.18,-5.12 15.33,-7.95 26.07,-12.24 28.91,-11.53 88.36,-38.47 118.56,-40.98 0,-56.43 3.19,-102.33 3.19,-159.55 0,-46.53 -5.67,-105.24 12.62,-146.94 22.78,-51.94 70.23,-97.8 126.46,-112.86 9.2,-2.47 26.49,-4.06 48.21,-5.06z"/>
 </g>
</svg>
