<?xml version="1.0" encoding="UTF-8"?>
<!DOCTYPE svg PUBLIC "-//W3C//DTD SVG 1.1//EN" "http://www.w3.org/Graphics/SVG/1.1/DTD/svg11.dtd">
<!-- Creator: CorelDRAW 2020 (64-Bit) -->
<svg xmlns="http://www.w3.org/2000/svg" xml:space="preserve" width="300mm" height="100mm" version="1.1" style="shape-rendering:geometricPrecision; text-rendering:geometricPrecision; image-rendering:optimizeQuality; fill-rule:evenodd; clip-rule:evenodd"
viewBox="0 0 30000 10000"
 xmlns:xlink="http://www.w3.org/1999/xlink"
 xmlns:xodm="http://www.corel.com/coreldraw/odm/2003">
 <defs>
  <style type="text/css">
   <![CDATA[
    .fil0 {fill:#1C1C1C}
    .fil1 {fill:#FED600}
   ]]>
  </style>
 </defs>
 <g id="Слой_x0020_1">
  <metadata id="CorelCorpID_0Corel-Layer"/>
  <g id="_1144529264">
   <path class="fil0" d="M22401.54 3658.79c171.12,-40.45 321.13,58.98 385.36,166.71 77.66,130.25 49.84,361.73 49.8,525.07 -0.08,378.61 -0.01,757.2 0.05,1135.8l-5.32 1703.28c-43.71,330.7 -489.18,435.36 -664.95,135.3 -69.91,-119.35 -48.14,-370.5 -48.14,-526.52l0 -2271.62c0,-370.75 -83.51,-781.33 283.2,-868.02zm5380.41 2876.04c287.96,-66.88 529.04,145.98 577.99,371.99 64.6,298.3 -141.04,532.92 -370.79,583.93 -621.83,138.04 -847.98,-807.1 -207.2,-955.92zm-6577.1 -1361.78c367.92,0 305,3.17 607.07,-156.66l0 1860.38c-97.8,-65.49 -155.06,-166.57 -251.09,-238.49 -71.93,-53.86 -237.83,-130.96 -355.98,-133.6l0 -1331.63zm4366.98 1292.47c-354.86,0 -418.42,6.94 -463.23,-321.64 -52.22,-382.82 326.99,-951.25 933.22,-951.25 397.91,0 491.9,352.49 881.23,352.49l293.75 0c0,204.25 -8.59,497.35 61.11,683.04 61.91,164.92 97.55,98.07 -21.95,276.52 -126.72,-84.86 -426.56,-541.34 -1011.92,-346.09 -269.35,89.84 -379.81,306.93 -672.21,306.93zm2216.79 -4450.37c197.45,-58.15 352.69,54.18 411.89,177.49 79.68,165.96 41.79,1603.34 41.79,1844.61l0.22 1880.86c-10.54,456.02 -516.21,495.89 -676.57,198.91 -69.72,-129.09 -40.6,-425.73 -40.6,-591.48l0 -2506.6c0,-496.17 -91.9,-899.21 263.27,-1003.79zm-11297.49 1644.25c1118.4,-120.51 2007.35,710.78 2116.03,1701.4 73.86,673.28 -194.75,1299.85 -694.01,1709.82 -619.26,508.51 -1530.34,578.35 -2200.63,168.25 -264.82,-162.03 -228.62,-156.32 -399.56,-325.8 -46.62,-46.24 -75.12,-63.4 -116.54,-118.19 -235.07,-310.93 -376.65,-573.64 -420.43,-1007.55 -61.4,-608.46 108.95,-1029.02 447.37,-1465.28 46.96,-60.53 79.91,-70.79 128.34,-126.01 263.22,-300.11 725.85,-492.07 1139.43,-536.64zm-2999.57 3431.22c-64.6,27.82 -95.85,64.93 -155.13,102.84 -423.61,270.93 -929.08,372.26 -1437.08,273.23 -1678.84,-327.28 -2158.08,-2646.96 -568.01,-3570.38 970.17,-563.41 2253.75,-135.3 2708.28,862.84 244.49,536.88 174.79,1229.07 174.79,1863.04 0,331.37 69.52,692.47 -182.65,836.37 -125.86,71.81 -291.18,42.24 -394.63,-24.72 -100.55,-65.09 -135.59,-175.77 -145.57,-343.22zm-10812.13 -1741.32c0,-584.46 140.4,-914.09 513.97,-1287.66 545.15,-545.15 1321.54,-685.86 1992.01,-297.93 285.76,165.33 300.71,293.12 744.78,293.12l0 2114.95c-63.31,-16.91 -130.88,-90.3 -223.18,-129.32 -172.96,-73.12 -235.75,-66.51 -423.05,-66.51 -465.73,0 -521.85,489.57 -1449.14,489.57 -200.28,0 -326.8,-33.9 -482.26,-85.65 -119.9,-39.9 -298.45,-119.21 -373.35,-194.55 -155.21,-156.09 -299.78,-569.58 -299.78,-836.02zm22690.65 -1696.37c393.92,-23.1 766.16,72.63 1060.05,231.53 134.46,72.71 298.35,197.27 375.24,290.14 111.55,134.73 85.05,347.75 -24.96,464 -262.17,277.02 -584.08,-50.33 -682.88,-108.17 -1076.67,-630.39 -2425.38,665.56 -1510.32,1842.53 282.06,362.79 933.45,543.65 1435.96,289.16 78.6,-39.82 149.41,-87.23 203.41,-129.37 59.71,-46.57 109.54,-90.12 202.14,-110.08 359.43,-77.51 636.79,356.7 258.66,668.67 -222.1,183.25 -545.87,343.3 -919.13,393.47 -1619.58,217.72 -2677.04,-1470.36 -1981.66,-2803.48 303.71,-582.24 895.96,-988.1 1583.49,-1028.4zm-18420.83 344.4c83.04,-41.29 160.41,-107.2 256.97,-153.5 315.46,-151.23 623.73,-215.18 995.76,-179.6 613.2,58.62 1143.46,456.23 1402.68,948.32 333.01,632.15 214.11,1336.92 214.11,2127.13 0,267.5 42.14,519.53 -123.28,671.34 -182.91,167.85 -420.71,81.43 -533.07,-65.35 -165.83,-216.63 31.35,-1790.14 -119.96,-2230.12 -388.01,-1128.29 -2077.89,-910.33 -2097.93,351.09 -8.25,519.4 -0.8,1047.17 0.2,1567.36 1.25,660.13 -700.65,573.23 -719.8,98.22 -20.37,-505.51 -0.33,-1056.89 -0.33,-1567.51 0,-1049.59 -10.76,-2104.69 -0.34,-3153.57 5.46,-549.39 716.69,-574.41 720.86,19.42 3.66,521.92 -1.79,1045.05 4.13,1566.77zm12720.52 -359.35c0.8,-330.4 1.1,-660.73 1.08,-991.12 0,-154.75 -23.42,-343.04 46.16,-469.12 135.42,-245.37 505.21,-242.3 632.61,12.47 77.35,154.66 40.74,1234 40.74,1447.39 162.47,27.84 416.19,-17.62 554.97,32.91 122.28,44.52 232.49,179.27 227.26,347.33 -14.53,467.61 -576.69,325.27 -782.23,360.3 -0.96,375.95 -1.14,751.87 -1.14,1127.82 0,298.43 -42.27,799.34 105.82,1022.95 226.55,342.1 622.93,191.08 803.33,332.51 248.71,194.99 145.1,633.1 -229.84,641.1 -723.61,15.44 -1207.85,-310.64 -1348.39,-923.92 -84.2,-367.45 -50.37,-1734.24 -50.37,-2200.83 -153.57,-26.63 -251.96,2.53 -371.91,-78.75 -74.51,-50.49 -144.6,-163.89 -142.45,-300.1 5.95,-378.75 383.69,-338.33 514.36,-360.94zm2686.07 -1078.67c258.09,-76.75 473.22,93.46 526.2,290.57 147.02,547.05 -670.78,755.03 -814.09,226.61 -68.64,-253.1 94.82,-459.76 287.89,-517.18zm-18773.9 -547.09c582.21,-59.63 1100.5,51.36 1555.63,290.7 153.83,80.9 490.95,288.65 552.14,388.61 160.36,261.95 -35.59,550.92 -289.04,561.91 -202.81,8.79 -329.27,-172.82 -619.71,-319.11 -215.23,-108.42 -469.7,-181.58 -735.91,-201.14 -1799.27,-132.24 -2722.72,1839.98 -1876.29,3106.9 556.04,832.29 1641.35,1205.54 2594.65,732.43 322.52,-160.06 415.54,-324.89 638.1,-305.29 247.66,21.8 434.02,341.51 253.81,569.67 -101.84,128.94 -373.11,290.03 -558.12,382.89 -707.07,354.94 -1609.68,379.91 -2317,64.97 -461.67,-205.55 -737.92,-454.43 -1050.26,-809.6 -288.24,-327.78 -511.69,-843.12 -574.26,-1305.48 -219.95,-1625.11 905.79,-3001.75 2426.26,-3157.46zm-2762.88 2730.01c0,502.58 114.7,993.43 326.38,1416.5 199.48,398.68 435.63,686.94 745.78,997.09 281.82,281.82 585.52,596.5 957.64,785.24 621,314.96 976.99,365.25 1730.11,365.25 572.31,0 995.77,-189.16 1455.32,-444.22 67.7,-37.57 103.36,-68.8 170.06,-104.1 89.67,60.05 268.22,257.56 357.34,347.65 159.28,160.99 342.62,200.67 582.64,200.67 336.6,0 539.7,-202.18 596.67,-519.55 96.32,-536.48 -121.09,-1702.99 107.47,-2144.56 106.04,-204.84 377.27,-449.57 686.24,-449.57 90.63,0 129.9,32.05 215.41,39.17 17.39,74.62 37.68,121.32 39.94,214.64 13.03,538.65 -53,1393.73 26.29,1853.68 52.62,305.28 258.72,459.7 438.04,639.01 225.75,225.76 344.24,367.18 768.62,367.18 245.6,0 452.77,-123.17 540.7,-340.53 90.78,-224.47 66.37,-511.89 66.37,-814.86 394.98,264.49 826.79,1155.39 2036.63,1155.39 907.51,0 970.03,-195.83 1135.8,-195.83 46.41,0 187,195.83 587.49,195.83 260.02,0 467.21,-104.81 568.23,-332.59 78.41,-176.82 78,-561.57 78,-822.8 394.98,264.49 826.79,1155.39 2036.63,1155.39 723.21,0 1090.4,-109.96 1636.78,-536.91 319.39,-249.58 518.28,-642.66 637.42,-1027.13l50.27 -184.73c1.14,-3.12 3.23,-9.49 5.89,-13.69 44.25,531.67 367.76,847.55 709.88,1189.67 484.19,484.19 811.89,572.79 1522.57,572.79 260.41,0 545.05,-156.12 567.91,-430.82 304.59,203.97 259.86,430.82 802.9,430.82 770.1,0 646.23,-831.69 646.23,-1409.97 193.09,222.15 161.82,210.78 425.93,474.89 318.29,318.29 591.04,607.6 1022.95,778.67 711.59,281.83 1634.11,194.76 2252.43,-254.68 61.81,-44.93 61.02,-57.89 136.94,-98.06 384.84,257.7 255.96,509.15 979.14,509.15 392.02,0 704.98,-313.72 704.98,-704.98 0,-373.77 -39.04,-431.95 -234.99,-724.56 72.65,-151.41 117.5,-303.09 117.5,-528.75l0 -3348.67c0,-513.23 -119.43,-579.63 -376.97,-837.17 -223.18,-223.18 -392.9,-455.3 -817.59,-455.3 -228.2,0 -422.13,84.18 -518.03,226.12 -101.18,149.78 -129.59,392.39 -128.34,635.39 2.59,502.42 0.14,1005.52 0.14,1508.02 -202.48,-135.59 -190.55,-251.04 -665.73,-489.67 -653.35,-328.09 -1593.67,-314.35 -2214.12,57.69 -503.28,301.77 -583.94,564.79 -723.4,666.97 -9.95,-119.48 -97.92,-216.94 -97.92,-274.15 0,-47.24 176.24,-244.77 176.24,-430.83 0,-533.21 -50.41,-569.37 -416.13,-935.08 -323.35,-323.35 -400.06,-416.14 -895.92,-416.14 -308.42,0 -520.51,204.36 -588.51,449.38 -56.18,202.4 -47.24,450.97 52.61,654.43 15.11,30.81 105.08,166.81 105.08,169.08 0,89.98 -95.66,188.92 -112.21,318.92 -25.44,199.65 -3.72,182.47 -166.85,18.89 -144.2,-144.6 -284.52,-320.6 -465.09,-416.14 0,-237.09 5.27,-478.99 -17.79,-687.2 -30.49,-275.49 -88.27,-329.59 -241.69,-482.88 -309.1,-308.88 -454.05,-572.8 -954.66,-572.8 -502.63,0 -626.65,352.32 -626.65,802.9l0 861.65c-553.96,12.34 -649.95,835.36 -289.04,1189.85 385.99,379.11 289.04,211.24 289.04,885.93l-163.16 -404.75c-77.92,-154.6 -119.17,-234.23 -219.81,-367.66 -198.68,-263.4 -608.19,-672.51 -884.12,-878.35 -1038.39,-774.59 -2672.49,-537.12 -3334.07,613.69 -36.18,62.94 -121.53,222.64 -137.91,292.92 -56.76,-15.16 -26.48,-5.56 -59.18,-38.72 -1.62,-1.63 -42.85,-51.9 -53.41,-64.09 -557.16,-642.58 -1173.98,-1248.41 -2139.44,-1248.41 -555.83,0 -1039.86,117.77 -1407.42,394.21 -541.76,407.45 -674.87,845.64 -746.7,898.27 -46.16,-30.91 -63.1,-69.71 -102.61,-112.82 -187.97,-205.06 -587.92,-614.15 -778.66,-748.78 -355.74,-251.1 -826.3,-430.88 -1409.93,-430.88 -98.42,0 -87.68,17.61 -176.24,19.59 0,-805.49 58.91,-773.37 -396.55,-1228.83 -283.23,-283.23 -363.19,-435.72 -837.18,-435.72 -168.1,0 -381.41,99.83 -451.41,194.81 -101.97,138.36 -136.07,284.45 -136.07,529.76 -330.87,-221.57 -179.09,-175.72 -672.31,-424.34 -251.04,-126.54 -519.87,-217.71 -846.54,-269.68 -868.24,-138.11 -1901.1,61.82 -2559.3,689.11l-273.99 274.33c-288.05,307.77 -476.84,675.31 -609.94,1074.18 -42.86,128.43 -86.37,313.07 -104.54,443.78 -20.73,149.04 -44.51,373.96 -44.51,523.4z"/>
   <path class="fil1" d="M3581.94 2012.22c-1520.47,155.71 -2646.21,1532.35 -2426.26,3157.46 62.57,462.36 286.02,977.7 574.26,1305.48 312.34,355.17 588.59,604.05 1050.26,809.6 707.32,314.94 1609.93,289.97 2317,-64.97 185.01,-92.86 456.28,-253.95 558.12,-382.89 180.21,-228.16 -6.15,-547.87 -253.81,-569.67 -222.56,-19.6 -315.58,145.23 -638.1,305.29 -953.3,473.11 -2038.61,99.86 -2594.65,-732.43 -846.43,-1266.92 77.02,-3239.14 1876.29,-3106.9 266.21,19.56 520.68,92.72 735.91,201.14 290.44,146.29 416.9,327.9 619.71,319.11 253.45,-10.99 449.4,-299.96 289.04,-561.91 -61.19,-99.96 -398.31,-307.71 -552.14,-388.61 -455.13,-239.34 -973.42,-350.33 -1555.63,-290.7z"/>
   <path class="fil1" d="M6949.25 3997.33c-5.92,-521.72 -0.47,-1044.85 -4.13,-1566.77 -4.17,-593.83 -715.4,-568.81 -720.86,-19.42 -10.42,1048.88 0.34,2103.98 0.34,3153.57 0,510.62 -20.04,1062 0.33,1567.51 19.15,475.01 721.05,561.91 719.8,-98.22 -1,-520.19 -8.45,-1047.96 -0.2,-1567.36 20.04,-1261.42 1709.92,-1479.38 2097.93,-351.09 151.31,439.98 -45.87,2013.49 119.96,2230.12 112.36,146.78 350.16,233.2 533.07,65.35 165.42,-151.81 123.28,-403.84 123.28,-671.34 0,-790.21 118.9,-1494.98 -214.11,-2127.13 -259.22,-492.09 -789.48,-889.7 -1402.68,-948.32 -372.03,-35.58 -680.3,28.37 -995.76,179.6 -96.56,46.3 -173.93,112.21 -256.97,153.5z"/>
   <path class="fil1" d="M12118.25 4381.37c399.85,-57.1 781.45,94.95 1008.86,331.34 186.87,194.25 311.47,389.32 354.34,685.95 102.62,710.01 -415.72,1283.35 -1020.79,1372.64 -713.08,105.23 -1280.38,-417.28 -1369.67,-1024.41 -104.86,-713.11 416.58,-1278.33 1027.26,-1365.52zm1373.31 2709.25c9.98,167.45 45.02,278.13 145.57,343.22 103.45,66.96 268.77,96.53 394.63,24.72 252.17,-143.9 182.65,-505 182.65,-836.37 0,-633.97 69.7,-1326.16 -174.79,-1863.04 -454.53,-998.14 -1738.11,-1426.25 -2708.28,-862.84 -1590.07,923.42 -1110.83,3243.1 568.01,3570.38 508,99.03 1013.47,-2.3 1437.08,-273.23 59.28,-37.91 90.53,-75.02 155.13,-102.84z"/>
   <path class="fil1" d="M15489.88 5682.21c-48.56,-697.96 455.66,-1258.35 1094.25,-1308.94 190.63,-15.1 350.42,7.88 517.15,66.37 192.66,67.58 414.06,222.56 528.22,372.37 45.93,60.27 79.97,111.61 124.15,188.81 73.65,128.71 128.53,301.3 141.64,466.33 54.99,692.43 -469.33,1264.58 -1096.86,1311.59 -691.99,51.82 -1264.46,-462.78 -1308.55,-1096.53zm1001.25 -2022.81c-413.58,44.57 -876.21,236.53 -1139.43,536.64 -48.43,55.22 -81.38,65.48 -128.34,126.01 -338.42,436.26 -508.77,856.82 -447.37,1465.28 43.78,433.91 185.36,696.62 420.43,1007.55 41.42,54.79 69.92,71.95 116.54,118.19 170.94,169.48 134.74,163.77 399.56,325.8 670.29,410.1 1581.37,340.26 2200.63,-168.25 499.26,-409.97 767.87,-1036.54 694.01,-1709.82 -108.68,-990.62 -997.63,-1821.91 -2116.03,-1701.4z"/>
   <path class="fil1" d="M25370.08 3652.93c-687.53,40.3 -1279.78,446.16 -1583.49,1028.4 -695.38,1333.12 362.08,3021.2 1981.66,2803.48 373.26,-50.17 697.03,-210.22 919.13,-393.47 378.13,-311.97 100.77,-746.18 -258.66,-668.67 -92.6,19.96 -142.43,63.51 -202.14,110.08 -54,42.14 -124.81,89.55 -203.41,129.37 -502.51,254.49 -1153.9,73.63 -1435.96,-289.16 -915.06,-1176.97 433.65,-2472.92 1510.32,-1842.53 98.8,57.84 420.71,385.19 682.88,108.17 110.01,-116.25 136.51,-329.27 24.96,-464 -76.89,-92.87 -240.78,-217.43 -375.24,-290.14 -293.89,-158.9 -666.13,-254.63 -1060.05,-231.53z"/>
   <path class="fil1" d="M19669.77 3637.98c-130.67,22.61 -508.41,-17.81 -514.36,360.94 -2.15,136.21 67.94,249.61 142.45,300.1 119.95,81.28 218.34,52.12 371.91,78.75 0,466.59 -33.83,1833.38 50.37,2200.83 140.54,613.28 624.78,939.36 1348.39,923.92 374.94,-8 478.55,-446.11 229.84,-641.1 -180.4,-141.43 -576.78,9.59 -803.33,-332.51 -148.09,-223.61 -105.82,-724.52 -105.82,-1022.95 0,-375.95 0.18,-751.87 1.14,-1127.82 205.54,-35.03 767.7,107.31 782.23,-360.3 5.23,-168.06 -104.98,-302.81 -227.26,-347.33 -138.78,-50.53 -392.5,-5.07 -554.97,-32.91 0,-213.39 36.61,-1292.73 -40.74,-1447.39 -127.4,-254.77 -497.19,-257.84 -632.61,-12.47 -69.58,126.08 -46.16,314.37 -46.16,469.12 0.02,330.39 -0.28,660.72 -1.08,991.12z"/>
   <path class="fil0" d="M12353.38 6465.52c-313.95,0 -450.41,11.38 -450.41,-391.65 0,-450.29 460.5,-881.24 842.07,-881.24 104.95,0 280.45,5.76 360.09,70.74 79.61,64.95 70.73,274.76 70.73,379.67 0,365.17 -457.31,822.48 -822.48,822.48zm-235.13 -2084.15c-610.68,87.19 -1132.12,652.41 -1027.26,1365.52 89.29,607.13 656.59,1129.64 1369.67,1024.41 605.07,-89.29 1123.41,-662.63 1020.79,-1372.64 -42.87,-296.63 -167.47,-491.7 -354.34,-685.95 -227.41,-236.39 -609.01,-388.44 -1008.86,-331.34z"/>
   <path class="fil0" d="M16759.53 6465.52c-313.95,0 -450.41,11.38 -450.41,-391.65 0,-280.21 124.36,-448.14 269.25,-592.41 236.24,-235.23 348.98,-288.83 690.31,-288.83 58.07,0 210.06,44.2 242.6,70.74 79.61,64.95 70.73,274.76 70.73,379.67 0,365.17 -457.31,822.48 -822.48,822.48zm-1269.65 -783.31c44.09,633.75 616.56,1148.35 1308.55,1096.53 627.53,-47.01 1151.85,-619.16 1096.86,-1311.59 -13.11,-165.03 -67.99,-337.62 -141.64,-466.33 -44.18,-77.2 -78.22,-128.54 -124.15,-188.81 -114.16,-149.81 -335.56,-304.79 -528.22,-372.37 -166.73,-58.49 -326.52,-81.47 -517.15,-66.37 -638.59,50.59 -1142.81,610.98 -1094.25,1308.94z"/>
   <path class="fil1" d="M27788.62 2015.15c-355.17,104.58 -263.27,507.62 -263.27,1003.79l0 2506.6c0,165.75 -29.12,462.39 40.6,591.48 160.36,296.98 666.03,257.11 676.57,-198.91l-0.22 -1880.86c0,-241.27 37.89,-1678.65 -41.79,-1844.61 -59.2,-123.31 -214.44,-235.64 -411.89,-177.49z"/>
   <path class="fil1" d="M22401.54 3658.79c-366.71,86.69 -283.2,497.27 -283.2,868.02l0 2271.62c0,156.02 -21.77,407.17 48.14,526.52 175.77,300.06 621.24,195.4 664.95,-135.3l5.32 -1703.28c-0.06,-378.6 -0.13,-757.19 -0.05,-1135.8 0.04,-163.34 27.86,-394.82 -49.8,-525.07 -64.23,-107.73 -214.24,-207.16 -385.36,-166.71z"/>
   <path class="fil1" d="M27781.95 6534.83c-640.78,148.82 -414.63,1093.96 207.2,955.92 229.75,-51.01 435.39,-285.63 370.79,-583.93 -48.95,-226.01 -290.03,-438.87 -577.99,-371.99z"/>
   <path class="fil1" d="M22355.84 2559.31c-193.07,57.42 -356.53,264.08 -287.89,517.18 143.31,528.42 961.11,320.44 814.09,-226.61 -52.98,-197.11 -268.11,-367.32 -526.2,-290.57z"/>
  </g>
 </g>
</svg>
